<svg width="60" height="60" viewBox="0 0 60 60" fill="none" xmlns="http://www.w3.org/2000/svg">
<path d="M12.9091 24.7244L16.8768 16.7793C16.2672 16.5567 15.6962 16.2664 15.1543 15.918L11.1865 23.8631C11.7962 24.0857 12.3672 24.376 12.9091 24.7244Z" fill="#068978"/>
<path d="M43.1706 10.2201L29.9899 8.22656C29.9512 8.88463 29.8545 9.52334 29.6899 10.1427L42.6964 12.1072C42.7835 11.4588 42.948 10.8201 43.1706 10.2201Z" fill="#068978"/>
<path d="M53.226 32.95V23.1758C52.9067 23.2048 52.5873 23.2242 52.2583 23.2242C51.9292 23.2242 51.6099 23.2048 51.2905 23.1758V32.95C51.6099 32.9209 51.9292 32.9016 52.2583 32.9016C52.5873 32.9016 52.9067 32.9209 53.226 32.95Z" fill="#068978"/>
<path d="M43.5682 46.8292C43.2779 46.2582 43.0553 45.6582 42.8908 45.0195L34.8198 48.0099C35.1101 48.5808 35.3327 49.1808 35.4972 49.8195L43.5682 46.8292Z" fill="#068978"/>
<path d="M13.6646 40.5464L18.7936 45.9464C19.2194 45.4529 19.6936 45.0077 20.2065 44.6109L15.0775 39.2109C14.6516 39.7045 14.1775 40.1496 13.6646 40.5464Z" fill="#068978"/>
<path d="M17.0903 30.4249C17.2645 31.0443 17.3613 31.683 17.4 32.3411L20.6613 31.8185C20.5065 31.1991 20.4 30.5507 20.3613 29.9023L17.0903 30.4249Z" fill="#068978"/>
<path d="M27.2417 18.4072L25.7804 15.7266C25.2481 16.0943 24.6771 16.4137 24.0771 16.6556L25.5481 19.3459C26.0804 18.9879 26.6513 18.6685 27.2417 18.4072Z" fill="#068978"/>
<path d="M42.0967 34.6445C41.787 35.2058 41.4289 35.7478 41.0225 36.251L43.7128 38.0413C44.0128 37.4703 44.3708 36.9284 44.7773 36.4349L42.0967 34.6445Z" fill="#068978"/>
<path d="M28.1907 40.0234L27.5229 42.6847C28.1713 42.7718 28.8004 42.9267 29.4004 43.1492L30.0681 40.488C29.4294 40.3912 28.8004 40.2363 28.1907 40.0234Z" fill="#068978"/>
<path d="M43.7712 18.2031L40.3066 20.9999C40.7615 21.4644 41.1679 21.9676 41.5357 22.5096L44.8744 19.8096C44.4583 19.316 44.0905 18.7741 43.7712 18.2031Z" fill="#068978"/>
<path d="M22.2583 29.0329C22.2583 34.3651 26.6035 38.7103 31.9357 38.7103C37.268 38.7103 41.6131 34.3651 41.6131 29.0329C41.6131 23.7006 37.268 19.3555 31.9357 19.3555C26.6035 19.3555 22.2583 23.7006 22.2583 29.0329ZM31.9357 23.6522C33.4164 23.6522 34.626 24.8522 34.626 26.3426C34.626 27.8329 33.426 29.0329 31.9357 29.0329C30.4454 29.0329 29.2454 27.8329 29.2454 26.3426C29.2454 24.8522 30.4454 23.6522 31.9357 23.6522ZM27.6389 32.2555C27.6389 31.0748 28.6067 30.1071 29.7873 30.1071H34.0841C35.2648 30.1071 36.2325 31.0748 36.2325 32.2555V35.4587C35.0035 36.2813 33.5228 36.7651 31.9357 36.7651C30.3486 36.7651 28.868 36.2813 27.6389 35.4587V32.2555Z" fill="#068978"/>
<path d="M7.74194 40.644C12.0097 40.644 15.4839 37.1698 15.4839 32.9021C15.4839 28.6343 12.0097 25.1602 7.74194 25.1602C3.47419 25.1602 0 28.6343 0 32.9021C0 37.1698 3.47419 40.644 7.74194 40.644ZM7.74194 28.0634C9.07742 28.0634 10.1613 29.1473 10.1613 30.4827C10.1613 31.8182 9.07742 32.9021 7.74194 32.9021C6.40645 32.9021 5.32258 31.8182 5.32258 30.4827C5.32258 29.1473 6.40645 28.0634 7.74194 28.0634ZM3.87097 35.8053C3.87097 34.7408 4.74194 33.8698 5.80645 33.8698H9.67742C10.7419 33.8698 11.6129 34.7408 11.6129 35.8053V37.2182C10.5871 38.1376 9.23226 38.7085 7.74194 38.7085C6.25161 38.7085 4.89677 38.1376 3.87097 37.2182V35.8053Z" fill="#068978"/>
<path d="M20.3225 0C16.0548 0 12.5806 3.47419 12.5806 7.74194C12.5806 12.0097 16.0548 15.4839 20.3225 15.4839C24.5902 15.4839 28.0644 12.0097 28.0644 7.74194C28.0644 3.47419 24.5902 0 20.3225 0ZM20.3225 2.90323C21.658 2.90323 22.7419 3.9871 22.7419 5.32258C22.7419 6.65806 21.658 7.74194 20.3225 7.74194C18.987 7.74194 17.9031 6.65806 17.9031 5.32258C17.9031 3.9871 18.987 2.90323 20.3225 2.90323ZM24.1935 12.0581C23.1677 12.9774 21.8128 13.5484 20.3225 13.5484C18.8322 13.5484 17.4773 12.9774 16.4515 12.0581V10.6452C16.4515 9.58064 17.3225 8.70968 18.387 8.70968H22.258C23.3225 8.70968 24.1935 9.58064 24.1935 10.6452V12.0581Z" fill="#068978"/>
<path d="M52.258 5.80469C47.9903 5.80469 44.5161 9.27888 44.5161 13.5466C44.5161 17.8144 47.9903 21.2886 52.258 21.2886C56.5258 21.2886 60 17.8144 60 13.5466C60 9.27888 56.5258 5.80469 52.258 5.80469ZM52.258 8.70791C53.5935 8.70791 54.6774 9.79178 54.6774 11.1273C54.6774 12.4628 53.5935 13.5466 52.258 13.5466C50.9226 13.5466 49.8387 12.4628 49.8387 11.1273C49.8387 9.79178 50.9226 8.70791 52.258 8.70791ZM56.129 17.8628C55.1032 18.7821 53.7484 19.3531 52.258 19.3531C50.7677 19.3531 49.4129 18.7821 48.3871 17.8628V16.4498C48.3871 15.3853 49.258 14.5144 50.3226 14.5144H54.1935C55.258 14.5144 56.129 15.3853 56.129 16.4498V17.8628Z" fill="#068978"/>
<path d="M33.8711 52.2576C33.8711 47.9898 30.3969 44.5156 26.1291 44.5156C21.8614 44.5156 18.3872 47.9898 18.3872 52.2576C18.3872 56.5253 21.8614 59.9995 26.1291 59.9995C30.3969 59.9995 33.8711 56.5253 33.8711 52.2576ZM26.1291 47.4189C27.4646 47.4189 28.5485 48.5027 28.5485 49.8382C28.5485 51.1737 27.4646 52.2576 26.1291 52.2576C24.7937 52.2576 23.7098 51.1737 23.7098 49.8382C23.7098 48.5027 24.7937 47.4189 26.1291 47.4189ZM30.0001 56.5737C28.9743 57.493 27.6195 58.064 26.1291 58.064C24.6388 58.064 23.284 57.493 22.2582 56.5737V55.1608C22.2582 54.0963 23.1291 53.2253 24.1937 53.2253H28.0646C29.1291 53.2253 30.0001 54.0963 30.0001 55.1608V56.5737Z" fill="#068978"/>
<path d="M52.258 34.8398C47.9903 34.8398 44.5161 38.314 44.5161 42.5818C44.5161 46.8495 47.9903 50.3237 52.258 50.3237C56.5258 50.3237 60 46.8495 60 42.5818C60 38.314 56.5258 34.8398 52.258 34.8398ZM52.258 37.7431C53.5935 37.7431 54.6774 38.8269 54.6774 40.1624C54.6774 41.4979 53.5935 42.5818 52.258 42.5818C50.9226 42.5818 49.8387 41.4979 49.8387 40.1624C49.8387 38.8269 50.9226 37.7431 52.258 37.7431ZM56.129 46.8979C55.1032 47.8173 53.7484 48.3882 52.258 48.3882C50.7677 48.3882 49.4129 47.8173 48.3871 46.8979V45.485C48.3871 44.4205 49.258 43.5495 50.3226 43.5495H54.1935C55.258 43.5495 56.129 44.4205 56.129 45.485V46.8979Z" fill="#068978"/>
</svg>
