<svg width="19" height="18" viewBox="0 0 19 18" fill="none" xmlns="http://www.w3.org/2000/svg">
<g id="attach_file_FILL0_wght400_GRAD0_opsz48 1">
<path id="Vector" d="M9.125 16.5C7.9875 16.5 7.01562 16.1094 6.20937 15.3281C5.40312 14.5469 5 13.5875 5 12.45V4.3875C5 3.5875 5.28437 2.90625 5.85312 2.34375C6.42187 1.78125 7.10625 1.5 7.90625 1.5C8.71875 1.5 9.40625 1.78125 9.96875 2.34375C10.5312 2.90625 10.8125 3.59375 10.8125 4.40625V11.7938C10.8125 12.2688 10.65 12.6719 10.325 13.0031C10 13.3344 9.6 13.5 9.125 13.5C8.65 13.5 8.25 13.3219 7.925 12.9656C7.6 12.6094 7.4375 12.1875 7.4375 11.7V4.35H8.1875V11.7563C8.1875 12.0312 8.27812 12.2656 8.45937 12.4594C8.64062 12.6531 8.8625 12.75 9.125 12.75C9.3875 12.75 9.60937 12.6562 9.79062 12.4688C9.97187 12.2812 10.0625 12.0563 10.0625 11.7938V4.3875C10.0625 3.7875 9.85312 3.28125 9.43437 2.86875C9.01562 2.45625 8.50625 2.25 7.90625 2.25C7.30625 2.25 6.79687 2.45625 6.37812 2.86875C5.95937 3.28125 5.75 3.7875 5.75 4.3875V12.4875C5.75 13.4 6.08125 14.1719 6.74375 14.8031C7.40625 15.4344 8.2 15.75 9.125 15.75C10.0625 15.75 10.8594 15.4313 11.5156 14.7938C12.1719 14.1563 12.5 13.375 12.5 12.45V4.35H13.25V12.4313C13.25 13.5688 12.8469 14.5313 12.0406 15.3188C11.2344 16.1063 10.2625 16.5 9.125 16.5Z" fill="#2D2D2D" fill-opacity="0.7"/>
</g>
</svg>
