<svg width="20" height="20" viewBox="0 0 20 20" fill="none" xmlns="http://www.w3.org/2000/svg">
<path d="M11.6045 2.08677C11.9312 2.08674 12.2522 2.17208 12.5358 2.33433C12.8194 2.49658 13.0556 2.73011 13.2212 3.01177L13.8995 4.1676H15.6253C16.3435 4.1676 17.0322 4.45283 17.5401 4.96056C18.048 5.46829 18.3334 6.15695 18.3337 6.8751V14.7918C18.3337 15.1474 18.2636 15.4996 18.1275 15.8282C17.9914 16.1568 17.7919 16.4554 17.5404 16.7069C17.2889 16.9583 16.9903 17.1578 16.6618 17.2939C16.3332 17.4301 15.981 17.5001 15.6253 17.5001H4.37533C3.65703 17.5001 2.96816 17.2148 2.46024 16.7069C1.95233 16.1989 1.66699 15.5101 1.66699 14.7918V6.8751C1.66699 6.15681 1.95233 5.46793 2.46024 4.96002C2.96816 4.45211 3.65703 4.16677 4.37533 4.16677H6.10866L6.83783 2.9801C7.00548 2.70695 7.24036 2.48134 7.52003 2.3248C7.7997 2.16826 8.11483 2.08602 8.43533 2.08594H11.6045V2.08677ZM11.6045 3.33677H8.43533C8.34413 3.33685 8.25406 3.35688 8.17142 3.39546C8.08879 3.43404 8.0156 3.49023 7.95699 3.5601L7.90283 3.6351L6.99199 5.11844C6.93614 5.20954 6.85786 5.2848 6.76464 5.33703C6.67141 5.38926 6.56635 5.41671 6.45949 5.41677H4.37616C4.18458 5.41666 3.99485 5.4543 3.81782 5.52754C3.64079 5.60078 3.47993 5.70818 3.34442 5.84361C3.20892 5.97904 3.10142 6.13984 3.02808 6.31683C2.95474 6.49382 2.91699 6.68352 2.91699 6.8751V14.7918C2.91699 15.5968 3.57033 16.2501 4.37533 16.2501H15.6253C16.0121 16.2501 16.383 16.0965 16.6565 15.823C16.93 15.5495 17.0837 15.1785 17.0837 14.7918V6.8751C17.0837 6.48833 16.93 6.1174 16.6565 5.84391C16.383 5.57042 16.0121 5.41677 15.6253 5.41677H13.542C13.433 5.41683 13.326 5.3884 13.2314 5.33432C13.1368 5.28023 13.058 5.20237 13.0028 5.10844L12.1428 3.64427C12.0877 3.55046 12.009 3.47267 11.9146 3.4186C11.8202 3.36452 11.7133 3.33603 11.6045 3.33594V3.33677ZM10.0003 6.66677C10.9949 6.66677 11.9487 7.06186 12.652 7.76512C13.3552 8.46838 13.7503 9.42221 13.7503 10.4168C13.7503 11.4113 13.3552 12.3652 12.652 13.0684C11.9487 13.7717 10.9949 14.1668 10.0003 14.1668C9.00576 14.1668 8.05194 13.7717 7.34868 13.0684C6.64541 12.3652 6.25033 11.4113 6.25033 10.4168C6.25033 9.42221 6.64541 8.46838 7.34868 7.76512C8.05194 7.06186 9.00576 6.66677 10.0003 6.66677ZM10.0003 7.91677C9.67202 7.91677 9.34693 7.98144 9.04362 8.10707C8.7403 8.23271 8.4647 8.41686 8.23256 8.649C8.00041 8.88115 7.81626 9.15675 7.69063 9.46006C7.56499 9.76338 7.50033 10.0885 7.50033 10.4168C7.50033 10.7451 7.56499 11.0702 7.69063 11.3735C7.81626 11.6768 8.00041 11.9524 8.23256 12.1845C8.4647 12.4167 8.7403 12.6008 9.04362 12.7265C9.34693 12.8521 9.67202 12.9168 10.0003 12.9168C10.6634 12.9168 11.2993 12.6534 11.7681 12.1845C12.2369 11.7157 12.5003 11.0798 12.5003 10.4168C12.5003 9.75373 12.2369 9.11784 11.7681 8.649C11.2993 8.18016 10.6634 7.91677 10.0003 7.91677Z" fill="#F8F8F8"/>
</svg>
