<svg width="38" height="38" viewBox="0 0 38 38" fill="none" xmlns="http://www.w3.org/2000/svg">
<path d="M22.0453 3.96252C22.6661 3.96247 23.276 4.12461 23.8148 4.43289C24.3536 4.74116 24.8025 5.18486 25.117 5.72002L26.4058 7.9161H29.6849C31.0494 7.9161 32.358 8.45804 33.323 9.42272C34.288 10.3874 34.8303 11.6959 34.8307 13.0604V28.102C34.8307 28.7778 34.6976 29.4469 34.439 30.0712C34.1804 30.6956 33.8014 31.2628 33.3236 31.7407C32.8457 32.2185 32.2784 32.5975 31.6541 32.8562C31.0298 33.1148 30.3607 33.2479 29.6849 33.2479H8.3099C6.94514 33.2479 5.63627 32.7057 4.67124 31.7407C3.70621 30.7756 3.16406 29.4668 3.16406 28.102V13.0604C3.16406 11.6956 3.70621 10.3867 4.67124 9.4217C5.63627 8.45667 6.94514 7.91452 8.3099 7.91452H11.6032L12.9886 5.65985C13.3072 5.14087 13.7535 4.7122 14.2848 4.41478C14.8162 4.11735 15.4149 3.9611 16.0239 3.96094H22.0453V3.96252ZM22.0453 6.33752H16.0239C15.8506 6.33766 15.6795 6.37572 15.5225 6.44902C15.3655 6.52233 15.2264 6.6291 15.1151 6.76185L15.0121 6.90435L13.2816 9.72269C13.1754 9.89578 13.0267 10.0388 12.8496 10.138C12.6725 10.2372 12.4728 10.2894 12.2698 10.2895H8.31148C7.94748 10.2893 7.587 10.3608 7.25064 10.5C6.91429 10.6391 6.60864 10.8432 6.35118 11.1005C6.09372 11.3578 5.88948 11.6634 5.75013 11.9996C5.61079 12.3359 5.53906 12.6964 5.53906 13.0604V28.102C5.53906 29.6315 6.7804 30.8729 8.3099 30.8729H29.6849C30.4198 30.8729 31.1245 30.5809 31.6442 30.0613C32.1638 29.5417 32.4557 28.8369 32.4557 28.102V13.0604C32.4557 12.3255 32.1638 11.6207 31.6442 11.1011C31.1245 10.5814 30.4198 10.2895 29.6849 10.2895H25.7266C25.5196 10.2896 25.3161 10.2356 25.1364 10.1329C24.9567 10.0301 24.807 9.88215 24.7021 9.70369L23.0681 6.92177C22.9634 6.74354 22.8139 6.59574 22.6346 6.49299C22.4552 6.39024 22.252 6.3361 22.0453 6.33594V6.33752ZM18.9974 12.6645C20.8871 12.6645 22.6993 13.4152 24.0355 14.7514C25.3717 16.0876 26.1224 17.8999 26.1224 19.7895C26.1224 21.6792 25.3717 23.4915 24.0355 24.8277C22.6993 26.1639 20.8871 26.9145 18.9974 26.9145C17.1077 26.9145 15.2955 26.1639 13.9593 24.8277C12.6231 23.4915 11.8724 21.6792 11.8724 19.7895C11.8724 17.8999 12.6231 16.0876 13.9593 14.7514C15.2955 13.4152 17.1077 12.6645 18.9974 12.6645ZM18.9974 15.0395C18.3736 15.0395 17.7559 15.1624 17.1797 15.4011C16.6034 15.6398 16.0797 15.9897 15.6386 16.4308C15.1976 16.8718 14.8477 17.3955 14.609 17.9718C14.3703 18.5481 14.2474 19.1657 14.2474 19.7895C14.2474 20.4133 14.3703 21.031 14.609 21.6073C14.8477 22.1836 15.1976 22.7072 15.6386 23.1483C16.0797 23.5894 16.6034 23.9392 17.1797 24.1779C17.7559 24.4167 18.3736 24.5395 18.9974 24.5395C20.2572 24.5395 21.4654 24.0391 22.3562 23.1483C23.247 22.2575 23.7474 21.0493 23.7474 19.7895C23.7474 18.5297 23.247 17.3216 22.3562 16.4308C21.4654 15.54 20.2572 15.0395 18.9974 15.0395Z" fill="#333333"/>
</svg>
