<svg width="16" height="16" viewBox="0 0 16 16" fill="none" xmlns="http://www.w3.org/2000/svg">
<path d="M9.53281 0.679375L6.42181 0.671875H6.42031C3.13981 0.671875 0.570312 3.24213 0.570312 6.52338C0.570312 9.59688 2.95981 11.9279 6.16906 12.0509V14.9219C6.16906 15.0029 6.20206 15.1364 6.25906 15.2241C6.36556 15.3929 6.54706 15.4844 6.73306 15.4844C6.83656 15.4844 6.94081 15.4559 7.03456 15.3959C7.23256 15.2699 11.8893 12.2909 13.1006 11.2664C14.5271 10.0589 15.3806 8.28887 15.3828 6.53237V6.51962C15.3783 3.24437 12.8103 0.679375 9.53281 0.678625V0.679375ZM12.3731 10.4084C11.5226 11.1284 8.72656 12.9621 7.29406 13.8906V11.5004C7.29406 11.1899 7.04281 10.9379 6.73156 10.9379H6.43456C3.68956 10.9379 1.69606 9.08088 1.69606 6.52338C1.69606 3.87288 3.77206 1.79688 6.42106 1.79688L9.53131 1.80437H9.53281C12.1818 1.80437 14.2578 3.87887 14.2593 6.52637C14.2571 7.95887 13.5528 9.40937 12.3738 10.4084H12.3731Z" fill="#2D2D2D" fill-opacity="0.8"/>
</svg>
