<svg width="24" height="24" viewBox="0 0 24 24" fill="none" xmlns="http://www.w3.org/2000/svg">
<path d="M17.9001 3H6.8001V15.8L13.7501 23L14.7251 22.225C14.8251 22.1417 14.9001 22.025 14.9501 21.875C15.0001 21.725 15.0251 21.5417 15.0251 21.325V21.075L13.9001 15.8H21.3751C21.7751 15.8 22.1251 15.65 22.4251 15.35C22.7251 15.05 22.8751 14.7 22.8751 14.3V12.254C22.8751 12.1347 22.8876 12.0125 22.9126 11.8875C22.9376 11.7625 22.9251 11.6417 22.8751 11.525L19.7251 4.275C19.5771 3.92083 19.3305 3.61979 18.9852 3.37187C18.64 3.12396 18.2782 3 17.9001 3ZM8.3001 4.5H18.2251L21.3751 11.975V14.3H12.0501L13.3751 20.525L8.3001 15.175V4.5ZM6.8001 15.8V14.3H3.4751V4.5H6.8001V3H1.9751V15.8H6.8001Z" fill="#2D2D2D" fill-opacity="0.8"/>
</svg>
