<svg width="288" height="232" viewBox="0 0 288 232" fill="none" xmlns="http://www.w3.org/2000/svg">
<rect width="8" height="8" fill="#09CEB4" fill-opacity="0.3"/>
<rect x="28" width="8" height="8" fill="#09CEB4" fill-opacity="0.3"/>
<rect x="56" width="8" height="8" fill="#09CEB4" fill-opacity="0.3"/>
<rect x="84" width="8" height="8" fill="#09CEB4" fill-opacity="0.3"/>
<rect x="112" width="8" height="8" fill="#09CEB4" fill-opacity="0.3"/>
<rect x="140" width="8" height="8" fill="#09CEB4" fill-opacity="0.3"/>
<rect x="168" width="8" height="8" fill="#09CEB4" fill-opacity="0.3"/>
<rect x="196" width="8" height="8" fill="#09CEB4" fill-opacity="0.3"/>
<rect x="224" width="8" height="8" fill="#09CEB4" fill-opacity="0.3"/>
<rect x="252" width="8" height="8" fill="#09CEB4" fill-opacity="0.3"/>
<rect x="280" width="8" height="8" fill="#09CEB4" fill-opacity="0.3"/>
<rect y="28" width="8" height="8" fill="#09CEB4" fill-opacity="0.3"/>
<rect x="28" y="28" width="8" height="8" fill="#09CEB4" fill-opacity="0.3"/>
<rect x="56" y="28" width="8" height="8" fill="#09CEB4" fill-opacity="0.3"/>
<rect x="84" y="28" width="8" height="8" fill="#09CEB4" fill-opacity="0.3"/>
<rect x="112" y="28" width="8" height="8" fill="#09CEB4" fill-opacity="0.3"/>
<rect x="140" y="28" width="8" height="8" fill="#09CEB4" fill-opacity="0.3"/>
<rect x="168" y="28" width="8" height="8" fill="#09CEB4" fill-opacity="0.3"/>
<rect x="196" y="28" width="8" height="8" fill="#09CEB4" fill-opacity="0.3"/>
<rect x="224" y="28" width="8" height="8" fill="#09CEB4" fill-opacity="0.3"/>
<rect x="252" y="28" width="8" height="8" fill="#09CEB4" fill-opacity="0.3"/>
<rect x="280" y="28" width="8" height="8" fill="#09CEB4" fill-opacity="0.3"/>
<rect y="56" width="8" height="8" fill="#09CEB4" fill-opacity="0.3"/>
<rect x="28" y="56" width="8" height="8" fill="#09CEB4" fill-opacity="0.3"/>
<rect x="56" y="56" width="8" height="8" fill="#09CEB4" fill-opacity="0.3"/>
<rect x="84" y="56" width="8" height="8" fill="#09CEB4" fill-opacity="0.3"/>
<rect x="112" y="56" width="8" height="8" fill="#09CEB4" fill-opacity="0.3"/>
<rect x="140" y="56" width="8" height="8" fill="#09CEB4" fill-opacity="0.3"/>
<rect x="168" y="56" width="8" height="8" fill="#09CEB4" fill-opacity="0.3"/>
<rect x="196" y="56" width="8" height="8" fill="#09CEB4" fill-opacity="0.3"/>
<rect x="224" y="56" width="8" height="8" fill="#09CEB4" fill-opacity="0.3"/>
<rect x="252" y="56" width="8" height="8" fill="#09CEB4" fill-opacity="0.3"/>
<rect x="280" y="56" width="8" height="8" fill="#09CEB4" fill-opacity="0.3"/>
<rect y="84" width="8" height="8" fill="#09CEB4" fill-opacity="0.3"/>
<rect x="28" y="84" width="8" height="8" fill="#09CEB4" fill-opacity="0.3"/>
<rect x="56" y="84" width="8" height="8" fill="#09CEB4" fill-opacity="0.3"/>
<rect x="84" y="84" width="8" height="8" fill="#09CEB4" fill-opacity="0.3"/>
<rect x="112" y="84" width="8" height="8" fill="#09CEB4" fill-opacity="0.3"/>
<rect x="140" y="84" width="8" height="8" fill="#09CEB4" fill-opacity="0.3"/>
<rect x="168" y="84" width="8" height="8" fill="#09CEB4" fill-opacity="0.3"/>
<rect x="196" y="84" width="8" height="8" fill="#09CEB4" fill-opacity="0.3"/>
<rect x="224" y="84" width="8" height="8" fill="#09CEB4" fill-opacity="0.3"/>
<rect x="252" y="84" width="8" height="8" fill="#09CEB4" fill-opacity="0.3"/>
<rect x="280" y="84" width="8" height="8" fill="#09CEB4" fill-opacity="0.3"/>
<rect y="112" width="8" height="8" fill="#09CEB4" fill-opacity="0.3"/>
<rect x="28" y="112" width="8" height="8" fill="#09CEB4" fill-opacity="0.3"/>
<rect x="56" y="112" width="8" height="8" fill="#09CEB4" fill-opacity="0.3"/>
<rect x="84" y="112" width="8" height="8" fill="#09CEB4" fill-opacity="0.3"/>
<rect x="112" y="112" width="8" height="8" fill="#09CEB4" fill-opacity="0.3"/>
<rect x="140" y="112" width="8" height="8" fill="#09CEB4" fill-opacity="0.3"/>
<rect x="168" y="112" width="8" height="8" fill="#09CEB4" fill-opacity="0.3"/>
<rect x="196" y="112" width="8" height="8" fill="#09CEB4" fill-opacity="0.3"/>
<rect x="224" y="112" width="8" height="8" fill="#09CEB4" fill-opacity="0.3"/>
<rect x="252" y="112" width="8" height="8" fill="#09CEB4" fill-opacity="0.3"/>
<rect x="280" y="112" width="8" height="8" fill="#09CEB4" fill-opacity="0.3"/>
<rect y="140" width="8" height="8" fill="#09CEB4" fill-opacity="0.3"/>
<rect x="28" y="140" width="8" height="8" fill="#09CEB4" fill-opacity="0.3"/>
<rect x="56" y="140" width="8" height="8" fill="#09CEB4" fill-opacity="0.3"/>
<rect x="84" y="140" width="8" height="8" fill="#09CEB4" fill-opacity="0.3"/>
<rect x="112" y="140" width="8" height="8" fill="#09CEB4" fill-opacity="0.3"/>
<rect x="140" y="140" width="8" height="8" fill="#09CEB4" fill-opacity="0.3"/>
<rect x="168" y="140" width="8" height="8" fill="#09CEB4" fill-opacity="0.3"/>
<rect x="196" y="140" width="8" height="8" fill="#09CEB4" fill-opacity="0.3"/>
<rect x="224" y="140" width="8" height="8" fill="#09CEB4" fill-opacity="0.3"/>
<rect x="252" y="140" width="8" height="8" fill="#09CEB4" fill-opacity="0.3"/>
<rect x="280" y="140" width="8" height="8" fill="#09CEB4" fill-opacity="0.3"/>
<rect y="168" width="8" height="8" fill="#09CEB4" fill-opacity="0.3"/>
<rect x="28" y="168" width="8" height="8" fill="#09CEB4" fill-opacity="0.3"/>
<rect x="56" y="168" width="8" height="8" fill="#09CEB4" fill-opacity="0.3"/>
<rect x="84" y="168" width="8" height="8" fill="#09CEB4" fill-opacity="0.3"/>
<rect x="112" y="168" width="8" height="8" fill="#09CEB4" fill-opacity="0.3"/>
<rect x="140" y="168" width="8" height="8" fill="#09CEB4" fill-opacity="0.3"/>
<rect x="168" y="168" width="8" height="8" fill="#09CEB4" fill-opacity="0.3"/>
<rect x="196" y="168" width="8" height="8" fill="#09CEB4" fill-opacity="0.3"/>
<rect x="224" y="168" width="8" height="8" fill="#09CEB4" fill-opacity="0.3"/>
<rect x="252" y="168" width="8" height="8" fill="#09CEB4" fill-opacity="0.3"/>
<rect x="280" y="168" width="8" height="8" fill="#09CEB4" fill-opacity="0.3"/>
<rect y="196" width="8" height="8" fill="#09CEB4" fill-opacity="0.3"/>
<rect x="28" y="196" width="8" height="8" fill="#09CEB4" fill-opacity="0.3"/>
<rect x="56" y="196" width="8" height="8" fill="#09CEB4" fill-opacity="0.3"/>
<rect x="84" y="196" width="8" height="8" fill="#09CEB4" fill-opacity="0.3"/>
<rect x="112" y="196" width="8" height="8" fill="#09CEB4" fill-opacity="0.3"/>
<rect x="140" y="196" width="8" height="8" fill="#09CEB4" fill-opacity="0.3"/>
<rect x="168" y="196" width="8" height="8" fill="#09CEB4" fill-opacity="0.3"/>
<rect x="196" y="196" width="8" height="8" fill="#09CEB4" fill-opacity="0.3"/>
<rect x="224" y="196" width="8" height="8" fill="#09CEB4" fill-opacity="0.3"/>
<rect x="252" y="196" width="8" height="8" fill="#09CEB4" fill-opacity="0.3"/>
<rect x="280" y="196" width="8" height="8" fill="#09CEB4" fill-opacity="0.3"/>
<rect y="224" width="8" height="8" fill="#09CEB4" fill-opacity="0.3"/>
<rect x="28" y="224" width="8" height="8" fill="#09CEB4" fill-opacity="0.3"/>
<rect x="56" y="224" width="8" height="8" fill="#09CEB4" fill-opacity="0.3"/>
<rect x="84" y="224" width="8" height="8" fill="#09CEB4" fill-opacity="0.3"/>
<rect x="112" y="224" width="8" height="8" fill="#09CEB4" fill-opacity="0.3"/>
<rect x="140" y="224" width="8" height="8" fill="#09CEB4" fill-opacity="0.3"/>
<rect x="168" y="224" width="8" height="8" fill="#09CEB4" fill-opacity="0.3"/>
<rect x="196" y="224" width="8" height="8" fill="#09CEB4" fill-opacity="0.3"/>
<rect x="224" y="224" width="8" height="8" fill="#09CEB4" fill-opacity="0.3"/>
<rect x="252" y="224" width="8" height="8" fill="#09CEB4" fill-opacity="0.3"/>
<rect x="280" y="224" width="8" height="8" fill="#09CEB4" fill-opacity="0.3"/>
</svg>
