<svg width="27" height="26" viewBox="0 0 27 26" fill="none" xmlns="http://www.w3.org/2000/svg">
<rect width="23" height="23" transform="translate(2 1)" fill="#09CEB4"/>
<path d="M12.0539 19.9122H14.9502L15.3847 17.8038C15.6743 17.6867 15.9461 17.5639 16.2 17.4356C16.4529 17.3063 16.7121 17.1479 16.9776 16.9605L19.0775 17.593L20.5256 15.2035L18.8602 13.798C18.9085 13.47 18.9326 13.1655 18.9326 12.8844C18.9326 12.6033 18.9085 12.2987 18.8602 11.9708L20.5256 10.5652L19.0775 8.17576L16.9776 8.80826C16.7121 8.62086 16.4529 8.4625 16.2 8.33319C15.9461 8.20481 15.6743 8.08206 15.3847 7.96493L14.9502 5.8566H12.0539L11.6195 7.96493C11.3299 8.08206 11.0581 8.20481 10.8042 8.33319C10.5512 8.4625 10.292 8.62086 10.0265 8.80826L7.92671 8.17576L6.47856 10.5652L8.14394 11.9708C8.09566 12.2987 8.07153 12.6033 8.07153 12.8844C8.07153 13.1655 8.09566 13.47 8.14394 13.798L6.47856 15.2035L7.92671 17.593L10.0265 16.9605C10.292 17.1479 10.5512 17.3063 10.8042 17.4356C11.0581 17.5639 11.3299 17.6867 11.6195 17.8038L12.0539 19.9122ZM13.5021 15.6955C12.7056 15.6955 12.024 15.42 11.4573 14.869C10.8896 14.319 10.6058 13.6574 10.6058 12.8844C10.6058 12.1113 10.8896 11.4493 11.4573 10.8983C12.024 10.3483 12.7056 10.0733 13.5021 10.0733C14.2986 10.0733 14.9806 10.3483 15.5483 10.8983C16.115 11.4493 16.3984 12.1113 16.3984 12.8844C16.3984 13.6574 16.115 14.319 15.5483 14.869C14.9806 15.42 14.2986 15.6955 13.5021 15.6955ZM3.36505 25.5344C2.56856 25.5344 1.88649 25.2594 1.31881 24.7093C0.752104 24.1583 0.46875 23.4963 0.46875 22.7233V3.04549C0.46875 2.27243 0.752104 1.61041 1.31881 1.05944C1.88649 0.509395 2.56856 0.234375 3.36505 0.234375H23.6391C24.4356 0.234375 25.1177 0.509395 25.6854 1.05944C26.2521 1.61041 26.5354 2.27243 26.5354 3.04549V22.7233C26.5354 23.4963 26.2521 24.1583 25.6854 24.7093C25.1177 25.2594 24.4356 25.5344 23.6391 25.5344H3.36505Z" fill="#F7F9FA"/>
</svg>
