<svg width="18" height="16" viewBox="0 0 18 16" fill="none" xmlns="http://www.w3.org/2000/svg">
<path d="M14.2498 6.87656V5.60156H10.9498V10.4016H12.2248V8.90156H13.7248V7.62656H12.2248V6.87656H14.2498ZM8.7748 5.60156H10.0498V10.4016H8.7748V5.60156ZM6.0748 6.80156C6.3748 6.80156 6.7498 6.95156 6.9748 7.17656L7.8748 6.42656C7.4248 5.90156 6.7498 5.60156 6.0748 5.60156C4.7248 5.60156 3.6748 6.65156 3.6748 8.00156C3.6748 9.35156 4.7248 10.4016 6.0748 10.4016C6.8248 10.4016 7.4248 10.1016 7.8748 9.57656V7.70156H5.7748V8.60156H6.6748V9.05156C6.5248 9.12656 6.2998 9.20156 6.0748 9.20156C5.3998 9.20156 4.8748 8.67656 4.8748 8.00156C4.8748 7.40156 5.3998 6.80156 6.0748 6.80156Z" fill="#2D2D2D" fill-opacity="0.7"/>
<path d="M15.375 0.515625H2.625C1.695 0.515625 0.9375 1.27088 0.9375 2.20087V13.8311C0.9375 14.7596 1.695 15.5156 2.625 15.5156H15.375C16.305 15.5156 17.0625 14.7596 17.0625 13.8311V2.20087C17.0625 1.27088 16.305 0.515625 15.375 0.515625ZM15.9375 13.8311C15.9375 14.1386 15.6855 14.3906 15.375 14.3906H2.625C2.3145 14.3906 2.0625 14.1386 2.0625 13.8311V2.20087C2.0625 1.89187 2.3145 1.64062 2.625 1.64062H15.375C15.6855 1.64062 15.9375 1.89187 15.9375 2.20087V13.8311Z" fill="#2D2D2D" fill-opacity="0.7"/>
</svg>
