<svg width="16" height="16" viewBox="0 0 16 16" fill="none" xmlns="http://www.w3.org/2000/svg">
<path d="M13.8125 0.5H2.1875C1.2575 0.5 0.5 1.2575 0.5 2.1875V13.8125C0.5 14.7425 1.2575 15.5 2.1875 15.5H13.8125C14.7425 15.5 15.5 14.7425 15.5 13.8125V2.1875C15.5 1.2575 14.7425 0.5 13.8125 0.5ZM2.1875 1.625H13.8125C14.1222 1.625 14.375 1.87775 14.375 2.1875V9.4445L11.4815 6.551C11.3765 6.446 11.234 6.386 11.084 6.386H11.0817C10.9317 6.386 10.787 6.446 10.6827 6.554L7.445 9.842L6.08525 8.4875C5.98025 8.3825 5.83775 8.3225 5.68775 8.3225C5.543 8.3 5.3915 8.3825 5.2865 8.49275L1.625 12.2315V2.1875C1.625 1.87775 1.87775 1.625 2.1875 1.625ZM1.6295 13.835L5.693 9.6845L10.4045 14.375H2.1875C1.886 14.375 1.64225 14.1335 1.6295 13.835ZM13.8125 14.375H11.9975L8.24225 10.6347L11.0862 7.74725L14.375 11.0352V13.8125C14.375 14.1222 14.1222 14.375 13.8125 14.375Z" fill="#2D2D2D" fill-opacity="0.7"/>
<path d="M5.65113 6.38722C6.28985 6.38722 6.80763 5.86944 6.80763 5.23072C6.80763 4.592 6.28985 4.07422 5.65113 4.07422C5.01241 4.07422 4.49463 4.592 4.49463 5.23072C4.49463 5.86944 5.01241 6.38722 5.65113 6.38722Z" fill="#2D2D2D" fill-opacity="0.7"/>
</svg>
