<svg width="18" height="18" viewBox="0 0 18 18" fill="none" xmlns="http://www.w3.org/2000/svg">
<path d="M14.5351 0H3.44615C1.6321 0 0.15625 1.47582 0.15625 3.28987V14.3788C0.15625 16.1929 1.6321 17.6687 3.44615 17.6687H14.5351C16.3491 17.6687 17.825 16.1929 17.825 14.3788V3.28987C17.825 1.47582 16.3491 0 14.5351 0ZM8.99061 12.6787C6.87081 12.6787 5.14628 10.9541 5.14628 8.83436C5.14628 6.71463 6.87081 4.99003 8.99061 4.99003C11.1104 4.99003 12.8349 6.71459 12.8349 8.83436C12.8349 10.9541 11.1104 12.6787 8.99061 12.6787ZM14.3465 4.21043C14.2503 4.30671 14.1171 4.36193 13.9807 4.36193C13.8444 4.36193 13.7109 4.30671 13.6146 4.21043C13.5183 4.11415 13.4631 3.9806 13.4631 3.84429C13.4631 3.70801 13.5183 3.57474 13.6146 3.47849C13.7109 3.38183 13.8444 3.32665 13.9807 3.32665C14.1167 3.32665 14.2503 3.38187 14.3465 3.47849C14.4432 3.57474 14.4984 3.70798 14.4984 3.84429C14.4984 3.9806 14.4432 4.11415 14.3465 4.21043Z" fill="#05675A"/>
</svg>
