<svg width="17" height="16" viewBox="0 0 17 16" fill="none" xmlns="http://www.w3.org/2000/svg">
<path d="M12.4281 15.75H4.10313V6.15L9.31563 0.75L10.0469 1.33125C10.1219 1.39375 10.1781 1.48125 10.2156 1.59375C10.2531 1.70625 10.2719 1.84375 10.2719 2.00625V2.19375L9.42813 6.15H15.0344C15.3344 6.15 15.5969 6.2625 15.8219 6.4875C16.0469 6.7125 16.1594 6.975 16.1594 7.275V8.80948C16.1594 8.89899 16.1688 8.99063 16.1875 9.08438C16.2063 9.17813 16.1969 9.26875 16.1594 9.35625L13.7969 14.7938C13.6859 15.0594 13.5009 15.2852 13.242 15.4711C12.983 15.657 12.7117 15.75 12.4281 15.75ZM5.22813 14.625H12.6719L15.0344 9.01875V7.275H8.04063L9.03438 2.60625L5.22813 6.61875V14.625ZM4.10313 6.15V7.275H1.60938V14.625H4.10313V15.75H0.484375V6.15H4.10313Z" fill="#2D2D2D" fill-opacity="0.8"/>
</svg>
