<svg width="18" height="18" viewBox="0 0 18 18" fill="none" xmlns="http://www.w3.org/2000/svg">
<path d="M16.2931 0H1.29905C0.580793 0 0 0.567047 0 1.26812V16.3241C0 17.0251 0.580793 17.5956 1.29905 17.5956H16.2931C17.0114 17.5956 17.5956 17.0251 17.5956 16.3275V1.26812C17.5956 0.567047 17.0114 0 16.2931 0ZM5.22026 14.9941H2.60841V6.59492H5.22026V14.9941ZM3.91434 5.45052C3.0758 5.45052 2.39878 4.7735 2.39878 3.9384C2.39878 3.10329 3.0758 2.42627 3.91434 2.42627C4.74944 2.42627 5.42646 3.10329 5.42646 3.9384C5.42646 4.77006 4.74944 5.45052 3.91434 5.45052ZM14.9941 14.9941H12.3857V10.9114C12.3857 9.93878 12.3685 8.6844 11.0282 8.6844C9.67072 8.6844 9.46452 9.74633 9.46452 10.8426V14.9941H6.85955V6.59492H9.36142V7.74276H9.39579C9.74289 7.08293 10.5952 6.38529 11.8633 6.38529C14.5061 6.38529 14.9941 8.12423 14.9941 10.3855V14.9941Z" fill="#05675A"/>
</svg>
