<svg width="72" height="72" viewBox="0 0 72 72" fill="none" xmlns="http://www.w3.org/2000/svg">
<path d="M37.5838 61.4392C37.5838 63.5217 34.4175 63.5217 34.4175 61.4392V49.0714L30.963 52.5251C29.4906 53.9976 27.2513 51.7583 28.7238 50.2866L34.8806 44.1306C35.5246 43.5158 36.4786 43.5047 37.1191 44.1306L43.2759 50.2866C44.7484 51.7583 42.5092 53.9976 41.0367 52.5251L37.5834 49.0718V61.4386L37.5838 61.4392ZM35.417 31.4423H36.5827C38.7697 31.4423 40.5585 33.2311 40.5585 35.4181V36.5838C40.5585 38.7735 38.7724 40.5592 36.5827 40.5592H35.417C33.228 40.5592 31.4416 38.7731 31.4416 36.5838V35.4181C31.4416 33.2284 33.2272 31.4423 35.417 31.4423ZM36.5827 33.9753H35.417C34.6253 33.9753 33.9746 34.6276 33.9746 35.4185V36.5842C33.9746 37.3751 34.6261 38.0266 35.417 38.0266H36.5827C37.3736 38.0266 38.0259 37.3759 38.0259 36.5842V35.4185C38.0259 34.6229 37.3779 33.9753 36.5827 33.9753ZM21.714 43.2715C20.2513 44.7431 18.0109 42.5182 19.4755 41.0448L22.9348 37.5845H10.5619C8.47937 37.5845 8.47937 34.4182 10.5619 34.4182H22.9348L19.4755 30.9571C18.0109 29.4838 20.2518 27.2588 21.714 28.7304L27.7857 34.8042C28.5101 35.4328 28.5101 36.5688 27.7857 37.1982L21.714 43.2712V43.2715ZM52.5246 41.0373C53.9971 42.5098 51.7578 44.7491 50.2861 43.2766L44.1301 37.1206C43.5161 36.477 43.5035 35.5223 44.1301 34.8813L50.2861 28.7253C51.7578 27.2528 53.9971 29.492 52.5246 30.9646L49.0713 34.4182H61.4381C63.5206 34.4182 63.5206 37.5845 61.4381 37.5845H49.0713L52.5246 41.0378V41.0373ZM28.7293 21.714C27.2577 20.2513 29.4826 18.0109 30.9559 19.4755L34.4171 22.9348V10.5619C34.4171 8.47937 37.5834 8.47937 37.5834 10.5619V22.9277L41.0367 19.4752C42.5091 18.0027 44.7484 20.2419 43.2759 21.7137L37.1191 27.8677C36.4735 28.5153 35.4027 28.4757 34.8034 27.7854L28.7296 21.7136L28.7293 21.714Z" fill="#068978"/>
</svg>
