<svg width="54" height="28" viewBox="0 0 54 28" fill="none" xmlns="http://www.w3.org/2000/svg">
<path fill-rule="evenodd" clip-rule="evenodd" d="M47.7766 6.38434H54V25.5956H47.9672L47.7771 16.9681C47.7743 16.7998 47.7004 16.6337 47.5759 16.5167C47.4514 16.3998 47.2777 16.3342 47.1046 16.3377C46.9314 16.344 46.761 16.4145 46.6415 16.5364C46.5221 16.6583 46.4555 16.8274 46.4601 16.9953L46.5634 21.6847C43.2643 22.1212 41.4591 22.9645 35.458 25.1893H35.4575C30.5621 27.007 29.1731 28.0011 23.7205 28.0011C18.3873 28.0011 13.3615 24.6697 10.3063 23.1323C10.3013 23.1323 10.2967 23.1261 10.2917 23.1252L1.41732 18.9281C0.909731 18.6857 0.49309 18.3433 0.254689 17.9777C0.0162884 17.6121 -0.0668635 17.2461 0.0571642 16.7939C0.307054 15.8837 1.28415 15.3163 2.17753 15.5833L14.5121 19.2612C14.9756 20.4901 16.0174 21.3968 17.3192 21.3968H29.9172C30.0913 21.3968 30.2649 21.3312 30.389 21.2124C30.513 21.0937 30.5851 20.9259 30.5851 20.7567C30.5851 20.5875 30.513 20.4196 30.389 20.3009C30.2649 20.1822 30.0913 20.1143 29.9172 20.1165H17.3192C16.4478 20.1165 15.5676 19.1523 15.5676 17.819C15.5676 16.4785 16.4441 15.533 17.3311 15.5151L28.1443 15.3232C28.3074 15.3169 28.4686 15.2558 28.5867 15.1464L35.0802 9.13485H46.4599V12.0913C46.4576 12.2605 46.5274 12.4292 46.6496 12.5498C46.7718 12.6703 46.9445 12.7404 47.1186 12.7404C47.2927 12.7404 47.4654 12.6703 47.5876 12.5498C47.7098 12.4292 47.7796 12.2605 47.7773 12.0913V6.38281L47.7766 6.38434Z" fill="#068978"/>
<path fill-rule="evenodd" clip-rule="evenodd" d="M8.75536 0C6.27892 0 4.25781 1.96329 4.25781 4.36438C4.25781 6.77095 6.27939 8.73504 8.75536 8.73504C10.7301 8.73504 12.4141 7.48553 13.0158 5.75936H30.6575C30.7856 5.75936 30.9134 5.72231 31.0199 5.65357C31.1269 5.58482 31.2124 5.48572 31.2625 5.37099C31.313 5.25672 31.3277 5.12771 31.3052 5.0054C31.2827 4.88308 31.222 4.76747 31.1338 4.67729L29.6336 3.14883H29.6326L28.1324 1.61408C28.0713 1.55159 27.9964 1.50114 27.9146 1.46677C27.8329 1.43284 27.7437 1.41499 27.6546 1.41499C27.5655 1.41499 27.4764 1.43284 27.3946 1.46677C27.3129 1.50069 27.2385 1.55158 27.1769 1.61408L25.6752 3.15009L24.6568 4.19198L23.6338 3.15009H23.6329L22.1326 1.61534C22.0715 1.55284 21.9967 1.5024 21.9149 1.46802C21.8331 1.4341 21.744 1.41624 21.6549 1.41624C21.5658 1.41624 21.4767 1.4341 21.3949 1.46802C21.3131 1.50195 21.2387 1.55239 21.1772 1.61534L19.6764 3.15009H19.6755L18.6516 4.19332L17.6277 3.15009H17.6268L16.1265 1.61534C16.0654 1.55284 15.9905 1.5024 15.9087 1.46802C15.827 1.4341 15.7379 1.41624 15.6488 1.41624C15.5596 1.41624 15.4705 1.4341 15.3888 1.46802C15.307 1.50195 15.2326 1.55239 15.171 1.61534L13.6693 3.15134L13.1884 3.64372C12.831 1.58364 10.9762 0.00203669 8.75376 0.00203669L8.75536 0Z" fill="#068978"/>
</svg>
