<svg width="20" height="17" viewBox="0 0 20 17" fill="none" xmlns="http://www.w3.org/2000/svg">
<path d="M8.76 0.0799975C8.96 0.679997 9.06 1.18 9.06 1.58C9.06 1.94 9 2.42 8.88 3.02C6.2 3.02 4.86 4.4 4.86 7.16C4.86 8.16 5.38 8.72 6.42 8.84C7.94 8.96 8.7 9.94 8.7 11.78C8.7 13.18 8.36 14.26 7.68 15.02C7.04 15.74 5.86 16.1 4.14 16.1C1.78 16.1 0.6 14.5 0.6 11.3C0.6 8.1 1.24 5.44 2.52 3.32C3.8 1.16 5.88 0.0799975 8.76 0.0799975ZM19.62 0.0799975C19.82 0.679997 19.92 1.18 19.92 1.58C19.92 1.94 19.86 2.42 19.74 3.02C17.06 3.02 15.72 4.4 15.72 7.16C15.72 8.16 16.24 8.72 17.28 8.84C18.8 8.96 19.56 9.94 19.56 11.78C19.56 13.18 19.22 14.26 18.54 15.02C17.9 15.74 16.72 16.1 15 16.1C12.64 16.1 11.46 14.5 11.46 11.3C11.46 8.1 12.1 5.44 13.38 3.32C14.66 1.16 16.74 0.0799975 19.62 0.0799975Z" fill="#068978"/>
</svg>
