<svg width="18" height="20" viewBox="0 0 18 20" fill="none" xmlns="http://www.w3.org/2000/svg">
<path d="M8.25 11.0484V0.898438H9.75V11.0484H8.25ZM9 19.0484C7.76667 19.0484 6.60417 18.8109 5.5125 18.3359C4.42083 17.8609 3.46667 17.2151 2.65 16.3984C1.83333 15.5818 1.1875 14.6276 0.7125 13.5359C0.2375 12.4443 0 11.2818 0 10.0484C0 8.7151 0.283333 7.46927 0.85 6.31094C1.41667 5.1526 2.21667 4.12344 3.25 3.22344L4.3 4.27344C3.41667 4.9901 2.72917 5.84427 2.2375 6.83594C1.74583 7.8276 1.5 8.89825 1.5 10.0479C1.5 12.1316 2.22917 13.9026 3.6875 15.3609C5.14583 16.8193 6.91667 17.5484 9 17.5484C11.0893 17.5484 12.8616 16.8193 14.317 15.3609C15.7723 13.9026 16.5 12.1316 16.5 10.0479C16.5 8.89825 16.2542 7.81927 15.7625 6.81094C15.2708 5.8026 14.6 4.95677 13.75 4.27344L14.825 3.22344C15.825 4.07344 16.6042 5.0901 17.1625 6.27344C17.7208 7.45677 18 8.7151 18 10.0484C18 11.2818 17.7625 12.4443 17.2875 13.5359C16.8125 14.6276 16.1708 15.5818 15.3625 16.3984C14.5542 17.2151 13.6042 17.8609 12.5125 18.3359C11.4208 18.8109 10.25 19.0484 9 19.0484Z" fill="#EB5757"/>
</svg>
