<svg width="20" height="17" viewBox="0 0 20 17" fill="none" xmlns="http://www.w3.org/2000/svg">
<path d="M11.24 16.92C11.04 16.32 10.94 15.82 10.94 15.42C10.94 15.06 11 14.58 11.12 13.98C13.8 13.98 15.14 12.6 15.14 9.84C15.14 8.84 14.62 8.28 13.58 8.16C12.06 8.04 11.3 7.06 11.3 5.22C11.3 3.82 11.64 2.74 12.32 1.98C12.96 1.26 14.14 0.900001 15.86 0.900001C18.22 0.900001 19.4 2.5 19.4 5.7C19.4 8.9 18.76 11.56 17.48 13.68C16.2 15.84 14.12 16.92 11.24 16.92ZM0.380001 16.92C0.18 16.32 0.0799999 15.82 0.08 15.42C0.08 15.06 0.14 14.58 0.260001 13.98C2.94 13.98 4.28 12.6 4.28 9.84C4.28 8.84 3.76 8.28 2.72 8.16C1.2 8.04 0.440001 7.06 0.440002 5.22C0.440002 3.82 0.780002 2.74 1.46 1.98C2.1 1.26 3.28 0.9 5 0.9C7.36 0.9 8.54 2.5 8.54 5.7C8.54 8.9 7.9 11.56 6.62 13.68C5.34 15.84 3.26 16.92 0.380001 16.92Z" fill="#068978"/>
</svg>
