<svg width="14" height="16" viewBox="0 0 14 16" fill="none" xmlns="http://www.w3.org/2000/svg">
<path d="M11.6312 15.5C11.0375 15.5 10.5328 15.2916 10.1172 14.8748C9.70156 14.4579 9.49375 13.9518 9.49375 13.3563C9.49375 13.2729 9.50312 13.171 9.52187 13.0504C9.54062 12.9299 9.56875 12.8214 9.60625 12.725L3.925 9.425C3.7375 9.6375 3.50625 9.80938 3.23125 9.94063C2.95625 10.0719 2.675 10.1375 2.3875 10.1375C1.79375 10.1375 1.28906 9.92969 0.873437 9.51406C0.457813 9.09844 0.25 8.59375 0.25 8C0.25 7.40625 0.457813 6.90156 0.873437 6.48594C1.28906 6.07031 1.79375 5.8625 2.3875 5.8625C2.675 5.8625 2.95 5.91875 3.2125 6.03125C3.475 6.14375 3.7125 6.30625 3.925 6.51875L9.60625 3.25625C9.56875 3.16786 9.54062 3.06842 9.52187 2.95792C9.50312 2.84743 9.49375 2.74063 9.49375 2.6375C9.49375 2.04375 9.70156 1.53906 10.1172 1.12344C10.5328 0.707813 11.0375 0.5 11.6312 0.5C12.225 0.5 12.7297 0.707813 13.1453 1.12344C13.5609 1.53906 13.7687 2.04375 13.7687 2.6375C13.7687 3.23125 13.5609 3.73594 13.1453 4.15156C12.7297 4.56719 12.225 4.775 11.6312 4.775C11.3393 4.775 11.0601 4.72813 10.7936 4.63438C10.527 4.54063 10.3 4.3875 10.1125 4.175L4.43125 7.325C4.45625 7.425 4.47812 7.54063 4.49687 7.67188C4.51562 7.80313 4.525 7.91401 4.525 8.00452C4.525 8.09504 4.51562 8.18879 4.49687 8.28577C4.47812 8.38276 4.45625 8.48125 4.43125 8.58125L10.1125 11.8063C10.3 11.6313 10.5187 11.4906 10.7687 11.3844C11.0187 11.2781 11.3062 11.225 11.6312 11.225C12.225 11.225 12.7297 11.4328 13.1453 11.8484C13.5609 12.2641 13.7687 12.7688 13.7687 13.3625C13.7687 13.9563 13.5609 14.4609 13.1453 14.8766C12.7297 15.2922 12.225 15.5 11.6312 15.5ZM11.6319 3.65C11.919 3.65 12.1594 3.55291 12.3531 3.35872C12.5469 3.16453 12.6437 2.92391 12.6437 2.63684C12.6437 2.34978 12.5467 2.10938 12.3525 1.91563C12.1583 1.72188 11.9177 1.625 11.6306 1.625C11.3435 1.625 11.1031 1.72209 10.9094 1.91628C10.7156 2.11047 10.6187 2.35109 10.6187 2.63816C10.6187 2.92522 10.7158 3.16563 10.91 3.35938C11.1042 3.55313 11.3448 3.65 11.6319 3.65ZM2.38816 9.0125C2.67522 9.0125 2.91562 8.91541 3.10937 8.72122C3.30312 8.52703 3.4 8.28641 3.4 7.99934C3.4 7.71228 3.30291 7.47188 3.10872 7.27813C2.91453 7.08438 2.67391 6.9875 2.38684 6.9875C2.09978 6.9875 1.85937 7.08459 1.66562 7.27878C1.47187 7.47297 1.375 7.71359 1.375 8.00066C1.375 8.28772 1.47209 8.52813 1.66628 8.72188C1.86047 8.91563 2.10109 9.0125 2.38816 9.0125ZM11.6319 14.375C11.919 14.375 12.1594 14.2779 12.3531 14.0837C12.5469 13.8895 12.6437 13.6489 12.6437 13.3618C12.6437 13.0748 12.5467 12.8344 12.3525 12.6406C12.1583 12.4469 11.9177 12.35 11.6306 12.35C11.3435 12.35 11.1031 12.4471 10.9094 12.6413C10.7156 12.8355 10.6187 13.0761 10.6187 13.3632C10.6187 13.6502 10.7158 13.8906 10.91 14.0844C11.1042 14.2781 11.3448 14.375 11.6319 14.375Z" fill="#2D2D2D" fill-opacity="0.8"/>
</svg>
