<svg width="22" height="18" viewBox="0 0 22 18" fill="none" xmlns="http://www.w3.org/2000/svg">
<path fill-rule="evenodd" clip-rule="evenodd" d="M6.8877 17.6687C15.0603 17.6687 19.6769 10.6739 19.3988 4.40022C20.2584 3.77173 21.005 2.98573 21.5955 2.09122C20.8057 2.44616 19.9572 2.6858 19.0671 2.79356C19.9758 2.24194 20.6734 1.36777 21.0021 0.326305C20.1513 0.83724 19.2099 1.20876 18.2074 1.40846C17.4043 0.541832 16.2606 0 14.9942 0C12.1534 0 10.0653 2.68655 10.7063 5.4771C7.04833 5.29097 3.8053 3.51475 1.63461 0.81614C0.481214 2.82145 1.03672 5.44395 2.99696 6.77102C2.27488 6.74841 1.59594 6.5472 1.00251 6.21412C0.954915 8.27971 2.41617 10.2127 4.53333 10.6437C3.91387 10.814 3.23567 10.8532 2.54557 10.7198C3.10553 12.4923 4.73114 13.7817 6.65718 13.8179C4.80699 15.2874 2.47567 15.9437 0.140625 15.6649C2.08897 16.9302 4.40245 17.6687 6.8877 17.6687Z" fill="#05675A"/>
</svg>
