<svg width="19" height="17" viewBox="0 0 19 17" fill="none" xmlns="http://www.w3.org/2000/svg">
<path d="M0.742189 13.9532C0.742189 14.677 0.981102 15.2925 1.45893 15.7997C1.93675 16.307 2.51844 16.5603 3.204 16.5597H16.3966C17.0821 16.5597 17.6638 16.3064 18.1417 15.7997C18.6195 15.2931 18.8584 14.6775 18.8584 13.9532V3.45451C18.8584 2.7307 18.6171 2.10812 18.1346 1.58675C17.6521 1.06537 17.0727 0.804687 16.3966 0.804688H3.204C2.52845 0.804688 1.94911 1.06537 1.46599 1.58675C0.982867 2.10812 0.7416 2.7307 0.742189 3.45451V13.9532ZM7.33143 12.0563V5.3514C7.33143 5.28372 7.35085 5.23076 7.38968 5.19251C7.41852 5.1831 7.44265 5.17839 7.46206 5.17839L7.53444 5.19251L13.8483 8.55201C13.8871 8.59085 13.9065 8.6391 13.9065 8.69677C13.9065 8.73561 13.8871 8.77415 13.8483 8.8124L7.53444 12.1719C7.51503 12.1913 7.49561 12.201 7.47619 12.201C7.43735 12.201 7.40852 12.1913 7.38968 12.1719C7.35085 12.1331 7.33143 12.0945 7.33143 12.0563Z" fill="#05675A"/>
</svg>
